<?xml version="1.0" encoding="UTF-8" standalone="no"?>
<svg
   xmlns:dc="http://purl.org/dc/elements/1.1/"
   xmlns:cc="http://creativecommons.org/ns#"
   xmlns:rdf="http://www.w3.org/1999/02/22-rdf-syntax-ns#"
   xmlns:svg="http://www.w3.org/2000/svg"
   xmlns="http://www.w3.org/2000/svg"
   xmlns:sodipodi="http://sodipodi.sourceforge.net/DTD/sodipodi-0.dtd"
   xmlns:inkscape="http://www.inkscape.org/namespaces/inkscape"
   version="1.1"
   width="384.58447265625"
   height="326"
   id="svg2440"
   sodipodi:docname="Type Hierarchy.svg"
   inkscape:version="0.92.1 r15371">
  <metadata
     id="metadata2444">
    <rdf:RDF>
      <cc:Work
         rdf:about="">
        <dc:format>image/svg+xml</dc:format>
        <dc:type
           rdf:resource="http://purl.org/dc/dcmitype/StillImage" />
      </cc:Work>
    </rdf:RDF>
  </metadata>
  <sodipodi:namedview
     pagecolor="#ffffff"
     bordercolor="#666666"
     borderopacity="1"
     objecttolerance="10"
     gridtolerance="10"
     guidetolerance="10"
     inkscape:pageopacity="0"
     inkscape:pageshadow="2"
     inkscape:window-width="690"
     inkscape:window-height="480"
     id="namedview2442"
     showgrid="false"
     inkscape:zoom="0.72392638"
     inkscape:cx="192.29224"
     inkscape:cy="163"
     inkscape:window-x="0"
     inkscape:window-y="0"
     inkscape:window-maximized="0"
     inkscape:current-layer="svg2440" />
  <defs
     id="defs2048" />
  <g
     id="g2438"
     inkscape:export-xdpi="300.0957"
     inkscape:export-ydpi="300.0957">
    <g
       transform="translate(-10,-10) scale(1,1)"
       id="g2052">
      <rect
         fill="#C0C0C0"
         stroke="none"
         x="259.792236328125"
         y="39"
         width="123.13720703125"
         height="39"
         opacity="0.2"
         id="rect2050" />
    </g>
    <g
       transform="translate(-10,-10) scale(1,1)"
       id="g2056">
      <rect
         fill="#ffffff"
         stroke="none"
         x="252.792236328125"
         y="32"
         width="123.13720703125"
         height="39"
         id="rect2054" />
    </g>
    <g
       transform="translate(-10,-10) scale(1,1)"
       id="g2060">
      <path
         fill="none"
         stroke="#000000"
         d="M 252.792236328125 32 L 375.929443359375 32 L 375.929443359375 71 L 252.792236328125 71 L 252.792236328125 32 Z Z"
         stroke-miterlimit="10"
         id="path2058" />
    </g>
    <g
       transform="translate(-10,-10) scale(1,1)"
       id="g2068">
      <g
         id="g2066">
        <path
           fill="none"
           stroke="none"
           id="path2062" />
        <text
           fill="#000000"
           stroke="none"
           font-family="Arial"
           font-size="13px"
           font-style="normal"
           font-weight="bold"
           text-decoration="none"
           x="284.745849609375"
           y="51.5"
           id="text2064">BDTickets</text>
      </g>
    </g>
    <g
       transform="translate(-10,-10) scale(1,1)"
       id="g2076">
      <g
         id="g2074">
        <path
           fill="none"
           stroke="none"
           id="path2070" />
        <text
           fill="#000000"
           stroke="none"
           font-family="Arial"
           font-size="13px"
           font-style="normal"
           font-weight="normal"
           text-decoration="none"
           x="257.292236328125"
           y="66.5"
           id="text2072">(from ProjectoFinal)</text>
      </g>
    </g>
    <g
       transform="translate(-10,-10) scale(1,1)"
       id="g2080">
      <rect
         fill="#C0C0C0"
         stroke="none"
         x="259.792236328125"
         y="94"
         width="123.13720703125"
         height="39"
         opacity="0.2"
         id="rect2078" />
    </g>
    <g
       transform="translate(-10,-10) scale(1,1)"
       id="g2084">
      <rect
         fill="#ffffff"
         stroke="none"
         x="252.792236328125"
         y="87"
         width="123.13720703125"
         height="39"
         id="rect2082" />
    </g>
    <g
       transform="translate(-10,-10) scale(1,1)"
       id="g2088">
      <path
         fill="none"
         stroke="#000000"
         d="M 252.792236328125 87 L 375.929443359375 87 L 375.929443359375 126 L 252.792236328125 126 L 252.792236328125 87 Z Z"
         stroke-miterlimit="10"
         id="path2086" />
    </g>
    <g
       transform="translate(-10,-10) scale(1,1)"
       id="g2096">
      <g
         id="g2094">
        <path
           fill="none"
           stroke="none"
           id="path2090" />
        <text
           fill="#000000"
           stroke="none"
           font-family="Arial"
           font-size="13px"
           font-style="normal"
           font-weight="bold"
           text-decoration="none"
           x="278.588623046875"
           y="106.5"
           id="text2092">Colaborador</text>
      </g>
    </g>
    <g
       transform="translate(-10,-10) scale(1,1)"
       id="g2104">
      <g
         id="g2102">
        <path
           fill="none"
           stroke="none"
           id="path2098" />
        <text
           fill="#000000"
           stroke="none"
           font-family="Arial"
           font-size="13px"
           font-style="normal"
           font-weight="normal"
           text-decoration="none"
           x="257.292236328125"
           y="121.5"
           id="text2100">(from ProjectoFinal)</text>
      </g>
    </g>
    <g
       transform="translate(-10,-10) scale(1,1)"
       id="g2108">
      <path
         fill="#C0C0C0"
         stroke="none"
         d="M 77.068603515625 38.5 C 77.068603515625 32.1487248 82.217328315625 27 88.568603515625 27 C 94.919878715625 27 100.068603515625 32.1487248 100.068603515625 38.5 C 100.068603515625 44.8512752 94.919878715625 50 88.568603515625 50 C 82.217328315625 50 77.068603515625 44.8512752 77.068603515625 38.5 Z"
         opacity="0.2"
         id="path2106" />
    </g>
    <g
       transform="translate(-10,-10) scale(1,1)"
       id="g2112">
      <path
         fill="#ffffff"
         stroke="none"
         d="M 70.068603515625 31.5 C 70.068603515625 25.1487248 75.217328315625 20 81.568603515625 20 C 87.919878715625 20 93.068603515625 25.1487248 93.068603515625 31.5 C 93.068603515625 37.8512752 87.919878715625 43 81.568603515625 43 C 75.217328315625 43 70.068603515625 37.8512752 70.068603515625 31.5 Z"
         id="path2110" />
    </g>
    <g
       transform="translate(-10,-10) scale(1,1)"
       id="g2116">
      <path
         fill="none"
         stroke="#000000"
         d="M 70.068603515625 31.5 C 70.068603515625 25.1487248 75.217328315625 20 81.568603515625 20 C 87.919878715625 20 93.068603515625 25.1487248 93.068603515625 31.5 C 93.068603515625 37.8512752 87.919878715625 43 81.568603515625 43 C 75.217328315625 43 70.068603515625 37.8512752 70.068603515625 31.5 Z"
         stroke-miterlimit="10"
         id="path2114" />
    </g>
    <g
       transform="translate(-10,-10) scale(1,1)"
       id="g2124">
      <g
         id="g2122">
        <path
           fill="none"
           stroke="none"
           id="path2118" />
        <text
           fill="#000000"
           stroke="none"
           font-family="Arial"
           font-size="13px"
           font-style="normal"
           font-weight="bold"
           text-decoration="none"
           x="50.147705078125"
           y="62.5"
           id="text2120">IBDTickets</text>
      </g>
    </g>
    <g
       transform="translate(-10,-10) scale(1,1)"
       id="g2132">
      <g
         id="g2130">
        <path
           fill="none"
           stroke="none"
           id="path2126" />
        <text
           fill="#000000"
           stroke="none"
           font-family="Arial"
           font-size="13px"
           font-style="normal"
           font-weight="normal"
           text-decoration="none"
           x="24.5"
           y="77.5"
           id="text2128">(from ProjectoFinal)</text>
      </g>
    </g>
    <g
       transform="translate(-10,-10) scale(1,1)"
       id="g2136">
      <path
         fill="none"
         stroke="#000000"
         d="M 252 49 Q 194 47 144 49"
         stroke-miterlimit="10"
         id="path2134" />
    </g>
    <g
       transform="translate(-10,-10) scale(1,1)"
       id="g2140">
      <path
         fill="#FFFFFF"
         stroke="none"
         d="M 163.97261658762636 39.77532728799159 L 144 49 L 164.64560125603717 56.59994399826187"
         id="path2138" />
    </g>
    <g
       transform="translate(-10,-10) scale(1,1)"
       id="g2144">
      <path
         fill="none"
         stroke="#000000"
         d="M 163.97261658762636 39.77532728799159 L 144 49 L 164.64560125603717 56.59994399826187 L 163.97261658762636 39.77532728799159"
         stroke-miterlimit="10"
         id="path2142" />
    </g>
    <g
       transform="translate(-10,-10) scale(1,1)"
       id="g2148">
      <path
         fill="none"
         stroke="#000000"
         d="M 252 54 Q 194 57 93.068603515625 35.40599810887897"
         stroke-miterlimit="10"
         id="path2146" />
    </g>
    <g
       transform="translate(-10,-10) scale(1,1)"
       id="g2152">
      <rect
         fill="#C0C0C0"
         stroke="none"
         x="27"
         y="115"
         width="123.13720703125"
         height="39"
         opacity="0.2"
         id="rect2150" />
    </g>
    <g
       transform="translate(-10,-10) scale(1,1)"
       id="g2156">
      <rect
         fill="#ffffff"
         stroke="none"
         x="20"
         y="108"
         width="123.13720703125"
         height="39"
         id="rect2154" />
    </g>
    <g
       transform="translate(-10,-10) scale(1,1)"
       id="g2160">
      <path
         fill="none"
         stroke="#000000"
         d="M 20 108 L 143.13720703125 108 L 143.13720703125 147 L 20 147 L 20 108 Z Z"
         stroke-miterlimit="10"
         id="path2158" />
    </g>
    <g
       transform="translate(-10,-10) scale(1,1)"
       id="g2168">
      <g
         id="g2166">
        <path
           fill="none"
           stroke="none"
           id="path2162" />
        <text
           fill="#000000"
           stroke="none"
           font-family="Arial"
           font-size="13px"
           font-style="italic"
           font-weight="bold"
           text-decoration="none"
           x="66.759521484375"
           y="127.5"
           id="text2164">Perfil</text>
      </g>
    </g>
    <g
       transform="translate(-10,-10) scale(1,1)"
       id="g2176">
      <g
         id="g2174">
        <path
           fill="none"
           stroke="none"
           id="path2170" />
        <text
           fill="#000000"
           stroke="none"
           font-family="Arial"
           font-size="13px"
           font-style="normal"
           font-weight="normal"
           text-decoration="none"
           x="24.5"
           y="142.5"
           id="text2172">(from ProjectoFinal)</text>
      </g>
    </g>
    <g
       transform="translate(-10,-10) scale(1,1)"
       id="g2180">
      <path
         fill="none"
         stroke="#000000"
         d="M 252 101 Q 194 97 144 110"
         stroke-miterlimit="10"
         id="path2178" />
    </g>
    <g
       transform="translate(-10,-10) scale(1,1)"
       id="g2184">
      <path
         fill="#FFFFFF"
         stroke="none"
         d="M 161.5528165787214 96.73732190868816 L 144 110 L 165.78984524679842 113.0335860166767"
         id="path2182" />
    </g>
    <g
       transform="translate(-10,-10) scale(1,1)"
       id="g2188">
      <path
         fill="none"
         stroke="#000000"
         d="M 161.5528165787214 96.73732190868816 L 144 110 L 165.78984524679842 113.0335860166767 L 161.5528165787214 96.73732190868816"
         stroke-miterlimit="10"
         id="path2186" />
    </g>
    <g
       transform="translate(-10,-10) scale(1,1)"
       id="g2192">
      <path
         fill="none"
         stroke="#000000"
         d="M 252 107 Q 194 108 144 116"
         stroke-miterlimit="10"
         stroke-dasharray="3"
         id="path2190" />
    </g>
    <g
       transform="translate(-10,-10) scale(1,1)"
       id="g2196">
      <path
         fill="#FFFFFF"
         stroke="none"
         d="M 162.739948527372 104.47549006718951 L 144 116 L 165.40020380613362 121.10208555944959"
         id="path2194" />
    </g>
    <g
       transform="translate(-10,-10) scale(1,1)"
       id="g2200">
      <path
         fill="none"
         stroke="#000000"
         d="M 162.739948527372 104.47549006718951 L 144 116 L 165.40020380613362 121.10208555944959 L 162.739948527372 104.47549006718951"
         stroke-miterlimit="10"
         id="path2198" />
    </g>
    <g
       transform="translate(-10,-10) scale(1,1)"
       id="g2204">
      <rect
         fill="#C0C0C0"
         stroke="none"
         x="251.13720703125"
         y="194"
         width="140.447265625"
         height="39"
         opacity="0.2"
         id="rect2202" />
    </g>
    <g
       transform="translate(-10,-10) scale(1,1)"
       id="g2208">
      <rect
         fill="#ffffff"
         stroke="none"
         x="244.13720703125"
         y="187"
         width="140.447265625"
         height="39"
         id="rect2206" />
    </g>
    <g
       transform="translate(-10,-10) scale(1,1)"
       id="g2212">
      <path
         fill="none"
         stroke="#000000"
         d="M 244.13720703125 187 L 384.58447265625 187 L 384.58447265625 226 L 244.13720703125 226 L 244.13720703125 187 Z Z"
         stroke-miterlimit="10"
         id="path2210" />
    </g>
    <g
       transform="translate(-10,-10) scale(1,1)"
       id="g2220">
      <g
         id="g2218">
        <path
           fill="none"
           stroke="none"
           id="path2214" />
        <text
           fill="#000000"
           stroke="none"
           font-family="Arial"
           font-size="13px"
           font-style="normal"
           font-weight="bold"
           text-decoration="none"
           x="253.2900390625"
           y="206.5"
           id="text2216">SuporteEquipamento</text>
      </g>
    </g>
    <g
       transform="translate(-10,-10) scale(1,1)"
       id="g2228">
      <g
         id="g2226">
        <path
           fill="none"
           stroke="none"
           id="path2222" />
        <text
           fill="#000000"
           stroke="none"
           font-family="Arial"
           font-size="13px"
           font-style="normal"
           font-weight="normal"
           text-decoration="none"
           x="257.292236328125"
           y="221.5"
           id="text2224">(from ProjectoFinal)</text>
      </g>
    </g>
    <g
       transform="translate(-10,-10) scale(1,1)"
       id="g2232">
      <rect
         fill="#C0C0C0"
         stroke="none"
         x="259.792236328125"
         y="244"
         width="123.13720703125"
         height="39"
         opacity="0.2"
         id="rect2230" />
    </g>
    <g
       transform="translate(-10,-10) scale(1,1)"
       id="g2236">
      <rect
         fill="#ffffff"
         stroke="none"
         x="252.792236328125"
         y="237"
         width="123.13720703125"
         height="39"
         id="rect2234" />
    </g>
    <g
       transform="translate(-10,-10) scale(1,1)"
       id="g2240">
      <path
         fill="none"
         stroke="#000000"
         d="M 252.792236328125 237 L 375.929443359375 237 L 375.929443359375 276 L 252.792236328125 276 L 252.792236328125 237 Z Z"
         stroke-miterlimit="10"
         id="path2238" />
    </g>
    <g
       transform="translate(-10,-10) scale(1,1)"
       id="g2248">
      <g
         id="g2246">
        <path
           fill="none"
           stroke="none"
           id="path2242" />
        <text
           fill="#000000"
           stroke="none"
           font-family="Arial"
           font-size="13px"
           font-style="normal"
           font-weight="bold"
           text-decoration="none"
           x="276.055908203125"
           y="256.5"
           id="text2244">SuporteRede</text>
      </g>
    </g>
    <g
       transform="translate(-10,-10) scale(1,1)"
       id="g2256">
      <g
         id="g2254">
        <path
           fill="none"
           stroke="none"
           id="path2250" />
        <text
           fill="#000000"
           stroke="none"
           font-family="Arial"
           font-size="13px"
           font-style="normal"
           font-weight="normal"
           text-decoration="none"
           x="257.292236328125"
           y="271.5"
           id="text2252">(from ProjectoFinal)</text>
      </g>
    </g>
    <g
       transform="translate(-10,-10) scale(1,1)"
       id="g2260">
      <rect
         fill="#C0C0C0"
         stroke="none"
         x="259.792236328125"
         y="294"
         width="123.13720703125"
         height="39"
         opacity="0.2"
         id="rect2258" />
    </g>
    <g
       transform="translate(-10,-10) scale(1,1)"
       id="g2264">
      <rect
         fill="#ffffff"
         stroke="none"
         x="252.792236328125"
         y="287"
         width="123.13720703125"
         height="39"
         id="rect2262" />
    </g>
    <g
       transform="translate(-10,-10) scale(1,1)"
       id="g2268">
      <path
         fill="none"
         stroke="#000000"
         d="M 252.792236328125 287 L 375.929443359375 287 L 375.929443359375 326 L 252.792236328125 326 L 252.792236328125 287 Z Z"
         stroke-miterlimit="10"
         id="path2266" />
    </g>
    <g
       transform="translate(-10,-10) scale(1,1)"
       id="g2276">
      <g
         id="g2274">
        <path
           fill="none"
           stroke="none"
           id="path2270" />
        <text
           fill="#000000"
           stroke="none"
           font-family="Arial"
           font-size="13px"
           font-style="normal"
           font-weight="bold"
           text-decoration="none"
           x="265.944091796875"
           y="306.5"
           id="text2272">SuporteSoftware</text>
      </g>
    </g>
    <g
       transform="translate(-10,-10) scale(1,1)"
       id="g2284">
      <g
         id="g2282">
        <path
           fill="none"
           stroke="none"
           id="path2278" />
        <text
           fill="#000000"
           stroke="none"
           font-family="Arial"
           font-size="13px"
           font-style="normal"
           font-weight="normal"
           text-decoration="none"
           x="257.292236328125"
           y="321.5"
           id="text2280">(from ProjectoFinal)</text>
      </g>
    </g>
    <g
       transform="translate(-10,-10) scale(1,1)"
       id="g2288">
      <rect
         fill="#C0C0C0"
         stroke="none"
         x="259.792236328125"
         y="144"
         width="123.13720703125"
         height="39"
         opacity="0.2"
         id="rect2286" />
    </g>
    <g
       transform="translate(-10,-10) scale(1,1)"
       id="g2292">
      <rect
         fill="#ffffff"
         stroke="none"
         x="252.792236328125"
         y="137"
         width="123.13720703125"
         height="39"
         id="rect2290" />
    </g>
    <g
       transform="translate(-10,-10) scale(1,1)"
       id="g2296">
      <path
         fill="none"
         stroke="#000000"
         d="M 252.792236328125 137 L 375.929443359375 137 L 375.929443359375 176 L 252.792236328125 176 L 252.792236328125 137 Z Z"
         stroke-miterlimit="10"
         id="path2294" />
    </g>
    <g
       transform="translate(-10,-10) scale(1,1)"
       id="g2304">
      <g
         id="g2302">
        <path
           fill="none"
           stroke="none"
           id="path2298" />
        <text
           fill="#000000"
           stroke="none"
           font-family="Arial"
           font-size="13px"
           font-style="normal"
           font-weight="bold"
           text-decoration="none"
           x="291.601318359375"
           y="156.5"
           id="text2300">Tecnico</text>
      </g>
    </g>
    <g
       transform="translate(-10,-10) scale(1,1)"
       id="g2312">
      <g
         id="g2310">
        <path
           fill="none"
           stroke="none"
           id="path2306" />
        <text
           fill="#000000"
           stroke="none"
           font-family="Arial"
           font-size="13px"
           font-style="normal"
           font-weight="normal"
           text-decoration="none"
           x="257.292236328125"
           y="171.5"
           id="text2308">(from ProjectoFinal)</text>
      </g>
    </g>
    <g
       transform="translate(-10,-10) scale(1,1)"
       id="g2316">
      <path
         fill="none"
         stroke="#000000"
         d="M 252 151 Q 194 147 144 138"
         stroke-miterlimit="10"
         id="path2314" />
    </g>
    <g
       transform="translate(-10,-10) scale(1,1)"
       id="g2320">
      <path
         fill="#FFFFFF"
         stroke="none"
         d="M 165.49532762756004 133.31482228897835 L 144 138 L 162.5124128598017 149.88657099874678"
         id="path2318" />
    </g>
    <g
       transform="translate(-10,-10) scale(1,1)"
       id="g2324">
      <path
         fill="none"
         stroke="#000000"
         d="M 165.49532762756004 133.31482228897835 L 144 138 L 162.5124128598017 149.88657099874678 L 165.49532762756004 133.31482228897835"
         stroke-miterlimit="10"
         id="path2322" />
    </g>
    <g
       transform="translate(-10,-10) scale(1,1)"
       id="g2328">
      <path
         fill="none"
         stroke="#000000"
         d="M 252 157 Q 194 157 144 144"
         stroke-miterlimit="10"
         stroke-dasharray="3"
         id="path2326" />
    </g>
    <g
       transform="translate(-10,-10) scale(1,1)"
       id="g2332">
      <path
         fill="#FFFFFF"
         stroke="none"
         d="M 165.78984524679842 140.96641398332332 L 144 144 L 161.5528165787214 157.26267809131184"
         id="path2330" />
    </g>
    <g
       transform="translate(-10,-10) scale(1,1)"
       id="g2336">
      <path
         fill="none"
         stroke="#000000"
         d="M 165.78984524679842 140.96641398332332 L 144 144 L 161.5528165787214 157.26267809131184 L 165.78984524679842 140.96641398332332"
         stroke-miterlimit="10"
         id="path2334" />
    </g>
    <g
       transform="translate(-10,-10) scale(1,1)"
       id="g2340">
      <rect
         fill="#C0C0C0"
         stroke="none"
         x="27"
         y="239"
         width="123.13720703125"
         height="39"
         opacity="0.2"
         id="rect2338" />
    </g>
    <g
       transform="translate(-10,-10) scale(1,1)"
       id="g2344">
      <rect
         fill="#ffffff"
         stroke="none"
         x="20"
         y="232"
         width="123.13720703125"
         height="39"
         id="rect2342" />
    </g>
    <g
       transform="translate(-10,-10) scale(1,1)"
       id="g2348">
      <path
         fill="none"
         stroke="#000000"
         d="M 20 232 L 143.13720703125 232 L 143.13720703125 271 L 20 271 L 20 232 Z Z"
         stroke-miterlimit="10"
         id="path2346" />
    </g>
    <g
       transform="translate(-10,-10) scale(1,1)"
       id="g2356">
      <g
         id="g2354">
        <path
           fill="none"
           stroke="none"
           id="path2350" />
        <text
           fill="#000000"
           stroke="none"
           font-family="Arial"
           font-size="13px"
           font-style="normal"
           font-weight="bold"
           text-decoration="none"
           x="64.233154296875"
           y="251.5"
           id="text2352">Ticket</text>
      </g>
    </g>
    <g
       transform="translate(-10,-10) scale(1,1)"
       id="g2364">
      <g
         id="g2362">
        <path
           fill="none"
           stroke="none"
           id="path2358" />
        <text
           fill="#000000"
           stroke="none"
           font-family="Arial"
           font-size="13px"
           font-style="normal"
           font-weight="normal"
           text-decoration="none"
           x="24.5"
           y="266.5"
           id="text2360">(from ProjectoFinal)</text>
      </g>
    </g>
    <g
       transform="translate(-10,-10) scale(1,1)"
       id="g2368">
      <path
         fill="none"
         stroke="#000000"
         d="M 243 201 Q 194 197 123 231"
         stroke-miterlimit="10"
         id="path2366" />
    </g>
    <g
       transform="translate(-10,-10) scale(1,1)"
       id="g2372">
      <path
         fill="#FFFFFF"
         stroke="none"
         d="M 137.69559881319518 214.62809187902593 L 123 231 L 144.96804482771117 229.81467032110342"
         id="path2370" />
    </g>
    <g
       transform="translate(-10,-10) scale(1,1)"
       id="g2376">
      <path
         fill="none"
         stroke="#000000"
         d="M 137.69559881319518 214.62809187902593 L 123 231 L 144.96804482771117 229.81467032110342 L 137.69559881319518 214.62809187902593"
         stroke-miterlimit="10"
         id="path2374" />
    </g>
    <g
       transform="translate(-10,-10) scale(1,1)"
       id="g2380">
      <path
         fill="none"
         stroke="#000000"
         d="M 252 251 Q 194 247 144 249"
         stroke-miterlimit="10"
         id="path2378" />
    </g>
    <g
       transform="translate(-10,-10) scale(1,1)"
       id="g2384">
      <path
         fill="#FFFFFF"
         stroke="none"
         d="M 163.97261658762636 239.7753272879916 L 144 249 L 164.64560125603717 256.5999439982619"
         id="path2382" />
    </g>
    <g
       transform="translate(-10,-10) scale(1,1)"
       id="g2388">
      <path
         fill="none"
         stroke="#000000"
         d="M 163.97261658762636 239.7753272879916 L 144 249 L 164.64560125603717 256.5999439982619 L 163.97261658762636 239.7753272879916"
         stroke-miterlimit="10"
         id="path2386" />
    </g>
    <g
       transform="translate(-10,-10) scale(1,1)"
       id="g2392">
      <path
         fill="none"
         stroke="#000000"
         d="M 252 301 Q 194 297 133 272"
         stroke-miterlimit="10"
         id="path2390" />
    </g>
    <g
       transform="translate(-10,-10) scale(1,1)"
       id="g2396">
      <path
         fill="#FFFFFF"
         stroke="none"
         d="M 154.9998459553854 271.91767175872167 L 133 272 L 148.61445511780357 287.4980254024214"
         id="path2394" />
    </g>
    <g
       transform="translate(-10,-10) scale(1,1)"
       id="g2400">
      <path
         fill="none"
         stroke="#000000"
         d="M 154.9998459553854 271.91767175872167 L 133 272 L 148.61445511780357 287.4980254024214 L 154.9998459553854 271.91767175872167"
         stroke-miterlimit="10"
         id="path2398" />
    </g>
    <g
       transform="translate(-10,-10) scale(1,1)"
       id="g2404">
      <path
         fill="none"
         stroke="#000000"
         d="M 243 207 Q 194 207 132 231"
         stroke-miterlimit="10"
         stroke-dasharray="3"
         id="path2402" />
    </g>
    <g
       transform="translate(-10,-10) scale(1,1)"
       id="g2408">
      <path
         fill="#FFFFFF"
         stroke="none"
         d="M 147.91555056163742 215.8113446836146 L 132 231 L 153.99399489977242 231.51399255712997"
         id="path2406" />
    </g>
    <g
       transform="translate(-10,-10) scale(1,1)"
       id="g2412">
      <path
         fill="none"
         stroke="#000000"
         d="M 147.91555056163742 215.8113446836146 L 132 231 L 153.99399489977242 231.51399255712997 L 147.91555056163742 215.8113446836146"
         stroke-miterlimit="10"
         id="path2410" />
    </g>
    <g
       transform="translate(-10,-10) scale(1,1)"
       id="g2416">
      <path
         fill="none"
         stroke="#000000"
         d="M 252 257 Q 194 257 144 254"
         stroke-miterlimit="10"
         stroke-dasharray="3"
         id="path2414" />
    </g>
    <g
       transform="translate(-10,-10) scale(1,1)"
       id="g2420">
      <path
         fill="#FFFFFF"
         stroke="none"
         d="M 164.79309789408288 246.81340971203406 L 144 254 L 163.7846272490118 263.6212537965516"
         id="path2418" />
    </g>
    <g
       transform="translate(-10,-10) scale(1,1)"
       id="g2424">
      <path
         fill="none"
         stroke="#000000"
         d="M 164.79309789408288 246.81340971203406 L 144 254 L 163.7846272490118 263.6212537965516 L 164.79309789408288 246.81340971203406"
         stroke-miterlimit="10"
         id="path2422" />
    </g>
    <g
       transform="translate(-10,-10) scale(1,1)"
       id="g2428">
      <path
         fill="none"
         stroke="#000000"
         d="M 252 307 Q 194 307 123 272"
         stroke-miterlimit="10"
         stroke-dasharray="3"
         id="path2426" />
    </g>
    <g
       transform="translate(-10,-10) scale(1,1)"
       id="g2432">
      <path
         fill="#FFFFFF"
         stroke="none"
         d="M 144.95311329722563 273.43555444312454 L 123 272 L 137.50810499912896 288.5382855621207"
         id="path2430" />
    </g>
    <g
       transform="translate(-10,-10) scale(1,1)"
       id="g2436">
      <path
         fill="none"
         stroke="#000000"
         d="M 144.95311329722563 273.43555444312454 L 123 272 L 137.50810499912896 288.5382855621207 L 144.95311329722563 273.43555444312454"
         stroke-miterlimit="10"
         id="path2434" />
    </g>
  </g>
</svg>
